PathFileType	4	(X/Y/Z)	pose_F01_0-62.trc
DataRate	CameraRate	NumFrames	NumMarkers	Units	OrigDataRate	OrigDataStartFrame	OrigNumFrames
30	30	9	21	m	30	24	62
Frame#	Time	CHip			RHip			RKnee			RAnkle			RBigToe			RSmallToe			RHeel			LHip			LKnee			LAnkle			LBigToe			LSmallToe			LHeel			Neck			Nose			RShoulder			RElbow			RWrist			LShoulder			LElbow			LWrist			
		X1	Y1	Z1	X2	Y2	Z2	X3	Y3	Z3	X4	Y4	Z4	X5	Y5	Z5	X6	Y6	Z6	X7	Y7	Z7	X8	Y8	Z8	X9	Y9	Z9	X10	Y10	Z10	X11	Y11	Z11	X12	Y12	Z12	X13	Y13	Z13	X14	Y14	Z14	X15	Y15	Z15	X16	Y16	Z16	X17	Y17	Z17	X18	Y18	Z18	X19	Y19	Z19	X20	Y20	Z20	X21	Y21	Z21	
24	0.8	-0.2191773419408499	1.8861961688437785	-0.5618360816938847	-0.23402179849713511	1.886294383421726	-0.5021406867160605	-0.2537714494749965	1.7415586604990905	-0.47664948068565904													-0.19900937303776325	1.88765818475334	-0.6258007233754573	-0.2054078159054082	1.7413192411123428	-0.5600032392558231	-0.20861809420269908	1.6222548950833535	-0.4877699927746539	-0.1939530408230884	1.6148865521598479	-0.524684192266502	-0.1876987434068851	1.6257637615794511	-0.5243075541671725	-0.2151458484882325	1.612911700402419	-0.46126733904476874	-0.2020457227413241	2.0416997557462655	-0.5769338864539334	-0.219585466146266	2.1109276690788503	-0.5884064859184606	-0.2223294605223461	2.0407362708514807	-0.4834806818822037	-0.22436184635292677	1.9529630252588994	-0.4427948084008921	-0.23061441390360754	1.877866081478066	-0.3795111545370325	-0.17977652541481293	2.0453259577172713	-0.6737847003177838	-1.3235168646335533	1.87675882702695	0.5224760932235786	-0.17696247210861443	1.8937582795552135	-0.7113186784911986
25	0.8333333333333334	-0.21303615739162904	1.8876734474021835	-0.5687876717138959	-0.22996689668253398	1.886964228829719	-0.5066741725326767	-0.2523420020131399	1.7378804753014556	-0.47813654276538614													-0.1959636752458931	1.8886913589703624	-0.6253024414516244	-0.20339943171484165	1.741544431913204	-0.562350572082171	-0.21181375255898122	1.6224333653520253	-0.48923669260597086	-0.1939530408230884	1.6148865521598479	-0.524684192266502	-0.1876987434068851	1.6257637615794511	-0.5243075541671725	-0.2151458484882325	1.612911700402419	-0.46126733904476874	-0.20335510602921747	2.0397723041001226	-0.5715688136544141	-0.20676663864969982	2.1105347480585803	-0.6094414027352586	-0.22362144476448537	2.039268860257204	-0.4788200335222383	-0.22339070330583657	1.951765479760155	-0.439606576154462	-0.22303856448926945	1.8741522602095215	-0.38865268806987796	-0.17940632221763209	2.0443094091737084	-0.6622419986404604	-1.3399931234286624	1.8786051714552148	0.551745630930555	-0.17105308244377102	1.9052319162437845	-0.7140809580102926
26	0.8666666666666667	-0.2127414485087697	1.8855106926476897	-0.5682933768202258	-0.22968838764695637	1.8849776161864162	-0.5061453094011152	-0.24973533041281634	1.7417993865832122	-0.4901080968821075													-0.19562024394697605	1.8886171021892588	-0.6250804706512638	-0.20087918464003843	1.7385944934681261	-0.564674033429675	-0.2090371255618124	1.6190089708535427	-0.4822787271057942	-0.1939530408230884	1.6148865521598479	-0.524684192266502	-0.1876987434068851	1.6257637615794511	-0.5243075541671725	-0.2151458484882325	1.612911700402419	-0.46126733904476874	-0.20447339784235743	2.0394900167893124	-0.566119879286644	-0.20527168108926308	2.1091004909120383	-0.6225855598980072	-0.22553252164556575	2.039087874395892	-0.4763506078752183	-0.22541246695520528	1.9509300515149983	-0.4373252135641884	-0.22810966184571416	1.8731951536837572	-0.38725732499008186	-0.1778073695683003	2.0438584329675593	-0.6560310705637987	-1.386600007557654	1.8792638383026425	0.6297990760925395	-0.16714071090298227	1.9113431496895514	-0.7110099786628065
27	0.9	-0.20887104749615815	1.8855899515083108	-0.5728299342865992	-0.22604588785961433	1.881784184983187	-0.5102596706577968	-0.25235336424637084	1.7405298227762829	-0.4960324854312345													-0.1909097266450104	1.885820518319053	-0.6263426052492197	-0.19911348631016454	1.7410592582528406	-0.566837327739001	-0.20566826376649885	1.6170665396272261	-0.48080452839095456	-0.1939530408230884	1.6148865521598479	-0.524684192266502	-0.1876987434068851	1.6257637615794511	-0.5243075541671725	-0.2151458484882325	1.612911700402419	-0.46126733904476874	-0.20559093549248214	2.0393978707693408	-0.5608359500049587	-0.204076414537444	2.109303834160581	-0.627885247137766	-0.2275505590060172	2.0365982391506354	-0.47370948009871616	-0.22447701556139493	1.948255846600118	-0.4336681753154177	-0.23424328202028	1.873828600373202	-0.39762945103285025	-0.17903610240396978	2.0428587538897474	-0.65066349734775	-0.1655175300648318	1.9684650684865261	-0.6654089325125437	-0.16263781562608184	1.9100597557813583	-0.7035951317504867
28	0.9333333333333333	-0.20789232285687365	1.8822618439260788	-0.569034054829285	-0.22410106887387818	1.8792041209387935	-0.5034180766369275	-0.25227333779794925	1.7406177109754626	-0.5049899378109771													-0.19082818740366167	1.8861167822819902	-0.6261262435053379	-0.19402134855892536	1.7413681385568647	-0.5680693510287665	-0.2070566565300117	1.6140687419132698	-0.4783830964940853	-0.1939530408230884	1.6148865521598479	-0.524684192266502	-0.1876987434068851	1.6257637615794511	-0.5243075541671725	-0.21403418007664415	1.6108650375471665	-0.4599029450780467	-0.20485376728231644	2.037065244991764	-0.5576562129198815	-0.20321955278743145	2.1054901815380505	-0.6239681944515753	-0.22654597788004766	2.035104540292884	-0.47011075573419786	-0.22550889394321624	1.9454973054651665	-0.4277173198242105	-0.23733288059407714	1.868104031817277	-0.39778172881382834	-0.1771542937490728	2.039548272066021	-0.6330995242987589	-1.391423046237817	1.8751988875198344	0.6458564144799411	-0.16148447788834722	1.9034335851276458	-0.6994900953377442
29	0.9666666666666667	-0.20464376112425126	1.8841574272983892	-0.5682537856932428	-0.21885704116851915	1.8805536561365335	-0.5048109236741433	-0.2499719815663748	1.7442474918216717	-0.5079505122941336													-0.18746169008939845	1.886349587510975	-0.6253137370440153	-0.19613143852640208	1.7424030911150419	-0.5657558160980007	-0.20683916484288414	1.6131373124798254	-0.4784330335551242	-0.1939530408230884	1.6148865521598479	-0.524684192266502	-0.1876987434068851	1.6257637615794511	-0.5243075541671725	-0.2129225116650558	1.608818374691914	-0.45853855111132463	-0.20314984445452988	2.036502930514472	-0.5429924366555349	-0.20061225616616912	2.1070578160877744	-0.6158945064599097	-0.2256240600943102	2.033794772200224	-0.46692012141790906	-0.22535149939094595	1.9476896777126853	-0.42771868585686307	-0.24179267668168908	1.8702278897661047	-0.39726037879848924	-0.1804843847040198	2.0390558913337333	-0.6254219099114888	-1.4039327317671155	1.876097970234079	0.6665134708139827	-0.16165827996577828	1.904385777489799	-0.6906062811955082
30	1.0	-0.20214444610873364	1.8837208265927843	-0.5586436039578618	-0.21904147117091713	1.8792171868378464	-0.5045373663414375	-0.24934496030049638	1.7413713185750512	-0.5126707348193853													-0.18507642776195327	1.8865062933926433	-0.61569419370559	-0.19445032077550461	1.7404633152135338	-0.5588128670332119	-0.20680534813499354	1.6128915963081474	-0.4783680639682121	-0.1907694724613591	1.6015545522856667	-0.5277170529040895	-0.18903425613400304	1.6076657134968853	-0.5347387128467909	-0.212974288707203	1.6065386456912978	-0.4580169085669023	-0.2014500674311788	2.0348780120185133	-0.5366340471736386	-0.19976134810762844	2.1039565389067447	-0.61166119724467	-0.22268013107395498	2.033336946997505	-0.45736836386139534	-0.23106905961831292	1.9438605742716228	-0.4204565814053583	-0.24373687305182412	1.8724417547163044	-0.4036973074103717	-0.18077673393641489	2.0379110455620153	-0.6164532233901083	-1.4613157826563972	1.873775477999319	0.7609486312351551	-0.16284350190576344	1.8963198738619635	-0.6808986040722153
31	1.0333333333333334	-0.20356241582282933	1.883968312263572	-0.5534006662402271	-0.22163545386033032	1.8820804984470347	-0.4946412207247315	-0.24932972426013447	1.7410591327885945	-0.5127548262531609													-0.18490177792813364	1.8869020019691924	-0.6041451444810266	-0.19402642837508305	1.7418137633404531	-0.5679178329913477	-0.2067163028693233	1.612528844583903	-0.47833933525764133	-0.19309900346902467	1.6030175989358881	-0.5253373289404187	-0.18941941785136893	1.610232764758198	-0.534268108168401	-0.21275600909925022	1.605296044803893	-0.458012243333894	-0.20242709772140666	2.034702015223041	-0.5313932968794358	-0.1989990115390716	2.1023808123259027	-0.6087772556074733	-0.2217809714614514	2.032051503264128	-0.45412493712857527	-0.23310589765066866	1.9450393833247073	-0.4185319907788807	-0.2505530957763977	1.870200800586144	-0.4176920204150278	-0.17731814638526738	2.036441506675225	-0.6039493132351093	-1.4730787670175671	1.8738865873094996	0.7796523518909197	-0.16149262507905254	1.894953891958603	-0.6656442624069812
32	1.0666666666666667	-0.20249902501149694	1.887632620078893	-0.5508629218593462	-0.22226921395492744	1.884432381933578	-0.49802472598926784	-0.24831740214261627	1.7446119902995225	-0.5098197949266877													-0.18677429375132285	1.8907880029187552	-0.6023619464892771	-0.1942148492202075	1.7437017579818808	-0.5681170005545602	-0.204131141555445	1.6148342067088648	-0.47714571622317986	-0.19510322043541395	1.5993776537461415	-0.5346681617250001	-0.18754894001834094	1.6102622311081154	-0.5278729378740796	-0.21234895499931658	1.6119239703085435	-0.45474233807436976	-0.20242778306451487	2.0347888545515	-0.5311158099640303	-0.20011749690290292	2.1023945144163383	-0.6035883549797935	-0.22081285690813135	2.0319265845828265	-0.45100261559015564	-0.23477496296315337	1.9474238510657502	-0.41642709888294843	-0.2514037423180734	1.875494023701309	-0.4221769076313682	-0.17769690023163923	2.0370840416860476	-0.5959334867863727	-1.4870015592190038	1.8764109697622093	0.801377864488047	-0.1647735531758621	1.8949819324225396	-0.6571512031075865
